HIERARCHY
ROOT joint_Root
{
	OFFSET 0.0 0.0 0.0
	CHANNELS 6 Xposition Yposition Zposition Zrotation Xrotation Yrotation 
	JOINT Hips
	{
		OFFSET -17.1583 93.1646 452.98
		CHANNELS 6 Xposition Yposition Zposition Zrotation Xrotation Yrotation 
		JOINT Spine
		{
			OFFSET 15.7357 0.0 0.0
			CHANNELS 6 Xposition Yposition Zposition Zrotation Xrotation Yrotation 
			JOINT Chest
			{
				OFFSET 8.98455 -0.406207 0.0
				CHANNELS 6 Xposition Yposition Zposition Zrotation Xrotation Yrotation 
				JOINT Neck
				{
					OFFSET 16.3773 0.0 0.0
					CHANNELS 6 Xposition Yposition Zposition Zrotation Xrotation Yrotation 
					JOINT Head
					{
						OFFSET 6.45672 0.0 0.0
						CHANNELS 6 Xposition Yposition Zposition Zrotation Xrotation Yrotation 
						End Site
						{
							OFFSET 0.0 0.0 0.0
						}
					}
				}
				JOINT Shoulder_L
				{
					OFFSET 12.9942 -0.242716 4.98039
					CHANNELS 6 Xposition Yposition Zposition Zrotation Xrotation Yrotation 
					JOINT UpperArm_L
					{
						OFFSET 5.34809 0.0 0.0
						CHANNELS 6 Xposition Yposition Zposition Zrotation Xrotation Yrotation 
						JOINT LowerArm_L
						{
							OFFSET 24.3286 1.87007e-05 0.0
							CHANNELS 6 Xposition Yposition Zposition Zrotation Xrotation Yrotation 
							JOINT Hand_L
							{
								OFFSET 22.2916 0.0 0.0
								CHANNELS 6 Xposition Yposition Zposition Zrotation Xrotation Yrotation 
								End Site
								{
									OFFSET 0.0 0.0 0.0
								}
							}
						}
					}
				}
				JOINT Shoulder_R
				{
					OFFSET 12.9945 -0.242716 -4.98039
					CHANNELS 6 Xposition Yposition Zposition Zrotation Xrotation Yrotation 
					JOINT UpperArm_R
					{
						OFFSET -5.34813 0.0 0.0
						CHANNELS 6 Xposition Yposition Zposition Zrotation Xrotation Yrotation 
						JOINT LowerArm_R
						{
							OFFSET -24.3289 0.000322201 0.0
							CHANNELS 6 Xposition Yposition Zposition Zrotation Xrotation Yrotation 
							JOINT Hand_R
							{
								OFFSET -22.2915 -0.000108084 0.0
								CHANNELS 6 Xposition Yposition Zposition Zrotation Xrotation Yrotation 
								End Site
								{
									OFFSET 0.0 0.0 0.0
								}
							}
						}
					}
				}
			}
		}
		JOINT UpperLeg_L
		{
			OFFSET -2.19248 -6.46944 0.0
			CHANNELS 6 Xposition Yposition Zposition Zrotation Xrotation Yrotation 
			JOINT LowerLeg_L
			{
				OFFSET 39.0811 0.0 -1.23785e-05
				CHANNELS 6 Xposition Yposition Zposition Zrotation Xrotation Yrotation 
				JOINT Foot_L
				{
					OFFSET 40.9854 0.0 -1.26872e-05
					CHANNELS 6 Xposition Yposition Zposition Zrotation Xrotation Yrotation 
					JOINT Toes_L
					{
						OFFSET 11.7543 0.0 0.0
						CHANNELS 6 Xposition Yposition Zposition Zrotation Xrotation Yrotation 
						End Site
						{
							OFFSET 0.0 0.0 0.0
						}
					}
				}
			}
		}
		JOINT UpperLeg_R
		{
			OFFSET -2.19251 6.46944 0.0
			CHANNELS 6 Xposition Yposition Zposition Zrotation Xrotation Yrotation 
			JOINT LowerLeg_R
			{
				OFFSET -39.0811 -0.00228153 -0.0401928
				CHANNELS 6 Xposition Yposition Zposition Zrotation Xrotation Yrotation 
				JOINT Foot_R
				{
					OFFSET -40.9854 0.0 0.0
					CHANNELS 6 Xposition Yposition Zposition Zrotation Xrotation Yrotation 
					JOINT Toes_R
					{
						OFFSET -11.7543 0.0 0.0
						CHANNELS 6 Xposition Yposition Zposition Zrotation Xrotation Yrotation 
						End Site
						{
							OFFSET 0.0 0.0 0.0
						}
					}
				}
			}
		}
	}
}
MOTION
Frames:	7
Frame Time:	0.0333333
0.000000 0.000000 0.000000 0.000000 0.000000 -0.000000 -0.646387 93.116800 0.541382 87.009300 -0.757351 -2.512040 15.735700 0.000005 -0.000001 87.896600 88.611300 -86.211600 8.984550 -0.406207 -0.000000 -4.984010 -0.289191 3.360170 16.377300 -0.000001 -0.000001 2.740380 2.839800 -2.757270 6.456720 -0.000001 -0.000000 6.799500 2.424480 -1.058480 12.994200 -0.242716 4.980390 -92.378400 7.167590 -71.588400 5.348090 -0.000007 -0.000001 -76.980500 14.280200 3.792960 24.328600 0.000019 0.000005 12.762700 23.603600 -29.496900 22.291600 -0.000001 0.000005 -3.559670 4.987290 7.587740 12.994500 -0.242716 -4.980390 88.527200 4.746680 -72.739800 -5.348130 -0.000001 -0.000004 -72.632800 22.725500 1.466020 -24.328900 0.000322 -0.000009 5.795640 11.313200 -27.361200 -22.291500 -0.000108 -0.000004 -3.125590 5.213850 2.369470 -2.192480 -6.469440 -0.000000 -176.773000 -0.231842 -4.335490 39.081100 -0.000007 -0.000012 0.147516 -0.469743 17.434400 40.985400 -0.000006 -0.000013 1.198490 7.215160 -71.005000 11.754300 -0.000000 0.000003 -0.000279 0.172202 -9.592150 -2.192510 6.469440 -0.000001 -175.477000 4.903990 -179.788000 -39.081100 -0.002282 -0.040193 0.000642 0.016183 9.462460 -40.985400 0.000008 0.000006 -3.940810 3.426270 -66.840500 -11.754300 -0.000006 -0.000006 -0.010426 0.274460 -5.421930
0.000000 0.000000 0.000000 0.000000 0.000000 -0.000000 -0.649427 93.121800 0.485548 86.987700 -0.623656 -2.521280 15.735700 0.000005 -0.000001 87.252900 88.579200 -85.557400 8.984550 -0.406207 -0.000000 -4.920720 -0.323637 3.379760 16.377300 -0.000001 -0.000001 2.583320 2.716640 -2.577740 6.456720 -0.000001 -0.000000 6.445910 2.349430 -0.821106 12.994200 -0.242716 4.980390 -92.411600 7.248080 -71.540800 5.348090 -0.000007 -0.000001 -76.550800 11.912000 3.672120 24.328600 0.000019 0.000005 12.988100 22.917300 -30.638800 22.291600 -0.000001 0.000005 -3.574530 4.959320 8.172750 12.994500 -0.242716 -4.980390 88.528100 4.706660 -72.612700 -5.348130 -0.000001 -0.000004 -72.295300 19.840200 1.802250 -24.328900 0.000322 -0.000009 6.634760 11.947400 -29.333900 -22.291500 -0.000108 -0.000004 -3.318960 5.199390 2.733810 -2.192480 -6.469440 -0.000000 -176.732000 -0.128389 -4.423040 39.081100 -0.000007 -0.000012 0.146760 -0.466164 17.475500 40.985400 -0.000006 -0.000013 1.177530 7.259020 -70.927200 11.754300 -0.000000 0.000003 -0.000023 0.168014 -9.762230 -2.192510 6.469440 -0.000001 -175.424000 4.829660 -179.848000 -39.081100 -0.002282 -0.040193 0.000722 0.015670 9.483520 -40.985400 0.000008 0.000006 -3.943240 3.229630 -66.855500 -11.754300 -0.000006 -0.000006 -0.010573 0.275536 -5.377920
0.000000 0.000000 0.000000 0.000000 0.000000 -0.000000 -0.643858 93.128200 0.425261 86.976500 -0.519012 -2.535850 15.735700 0.000005 -0.000001 86.672800 88.536200 -84.976600 8.984550 -0.406207 -0.000000 -4.835820 -0.356160 3.380000 16.377300 -0.000001 -0.000001 2.412230 2.572690 -2.337420 6.456720 -0.000001 -0.000000 5.893140 2.329140 -0.432751 12.994200 -0.242716 4.980390 -92.421300 7.250070 -71.476200 5.348090 -0.000007 -0.000001 -76.118700 9.376790 3.822550 24.328600 0.000019 0.000005 13.996000 22.340600 -33.254300 22.291600 -0.000001 0.000005 -3.428700 4.933580 8.701420 12.994500 -0.242716 -4.980390 88.521300 4.681070 -72.447200 -5.348130 -0.000001 -0.000004 -71.890300 16.505000 2.185200 -24.328900 0.000322 -0.000009 7.413670 12.067800 -31.901200 -22.291500 -0.000108 -0.000004 -3.014630 5.177740 3.271040 -2.192480 -6.469440 -0.000000 -176.719000 -0.074296 -4.524020 39.081100 -0.000007 -0.000012 0.145556 -0.461303 17.512500 40.985400 -0.000006 -0.000013 1.185600 7.262180 -70.862700 11.754300 -0.000000 0.000003 0.000055 0.166693 -9.815880 -2.192510 6.469440 -0.000001 -175.392000 4.813150 -179.929000 -39.081100 -0.002282 -0.040193 0.000830 0.014961 9.520870 -40.985400 0.000008 0.000006 -3.960440 3.104640 -66.818100 -11.754300 -0.000006 -0.000006 -0.010291 0.273468 -5.462490
0.000000 0.000000 0.000000 0.000000 0.000000 -0.000000 -0.652063 93.135600 0.350293 86.967800 -0.363527 -2.536030 15.735700 0.000005 -0.000001 85.365500 88.481100 -83.672200 8.984550 -0.406207 -0.000000 -4.729570 -0.429751 3.371320 16.377300 -0.000001 -0.000001 2.230500 2.412590 -1.968290 6.456720 -0.000001 -0.000000 5.092950 2.379850 0.104471 12.994200 -0.242716 4.980390 -92.427300 7.235580 -71.398800 5.348090 -0.000007 -0.000001 -75.648700 6.688500 4.320860 24.328600 0.000019 0.000005 15.301000 20.900700 -37.485400 22.291600 -0.000001 0.000005 -3.213390 4.884640 9.680220 12.994500 -0.242716 -4.980390 88.503500 4.684510 -72.261000 -5.348130 -0.000001 -0.000004 -71.342400 13.074800 2.429710 -24.328900 0.000322 -0.000009 7.662450 11.277600 -34.531200 -22.291500 -0.000108 -0.000004 -2.344500 5.164750 3.588040 -2.192480 -6.469440 -0.000000 -176.676000 0.083788 -4.646930 39.081100 -0.000007 -0.000012 0.144454 -0.455139 17.608900 40.985400 -0.000006 -0.000013 1.026440 7.321940 -70.839600 11.754300 -0.000000 0.000003 -0.000098 0.169263 -9.711520 -2.192510 6.469440 -0.000001 -175.351000 4.778400 -179.964000 -39.081100 -0.002282 -0.040193 0.000851 0.014878 9.494820 -40.985400 0.000008 0.000006 -3.874020 2.931360 -66.836400 -11.754300 -0.000006 -0.000006 -0.010720 0.276610 -5.333960
0.000000 0.000000 0.000000 0.000000 0.000000 -0.000000 -0.659516 93.144600 0.259762 86.949800 -0.247663 -2.605100 15.735700 0.000005 -0.000001 84.589700 88.433800 -82.900300 8.984550 -0.406207 -0.000000 -4.638350 -0.477844 3.361910 16.377300 -0.000001 -0.000001 2.042450 2.252750 -1.508820 6.456720 -0.000001 -0.000000 4.104690 2.383460 0.886833 12.994200 -0.242716 4.980390 -92.406000 7.146080 -71.337000 5.348090 -0.000007 -0.000001 -75.247800 4.258440 4.959450 24.328600 0.000019 0.000005 16.906400 18.979600 -43.062200 22.291600 -0.000001 0.000005 -2.755980 4.824140 10.856200 12.994500 -0.242716 -4.980390 88.492300 4.658380 -72.043800 -5.348130 -0.000001 -0.000004 -70.827400 9.346500 2.510180 -24.328900 0.000322 -0.000009 7.689930 10.183300 -37.375900 -22.291500 -0.000108 -0.000004 -1.632120 5.149410 3.954090 -2.192480 -6.469440 -0.000000 -176.644000 0.211816 -4.844080 39.081100 -0.000007 -0.000012 0.145394 -0.456205 17.677500 40.985400 -0.000006 -0.000013 0.984144 7.302930 -70.768700 11.754300 -0.000000 0.000003 -0.000099 0.169268 -9.711320 -2.192510 6.469440 -0.000001 -175.298000 4.865130 179.882000 -39.081100 -0.002282 -0.040193 0.001019 0.013838 9.518340 -40.985400 0.000008 0.000006 -3.913390 2.863840 -66.765600 -11.754300 -0.000006 -0.000006 -0.010358 0.273960 -5.442370
0.000000 0.000000 0.000000 0.000000 0.000000 -0.000000 -0.664134 93.166200 0.164099 86.949600 -0.156924 -2.630850 15.735700 0.000005 -0.000001 84.112200 88.374700 -82.443100 8.984550 -0.406207 -0.000000 -4.523050 -0.512055 3.320090 16.377300 -0.000001 -0.000001 1.964730 2.113370 -0.987815 6.456720 -0.000001 -0.000000 2.796380 2.411810 2.028430 12.994200 -0.242716 4.980390 -92.381200 7.042320 -71.264300 5.348090 -0.000007 -0.000001 -74.749100 2.382890 5.782410 24.328600 0.000019 0.000005 19.414500 16.983100 -50.347000 22.291600 -0.000001 0.000005 -2.363290 4.755900 12.139300 12.994500 -0.242716 -4.980390 88.457500 4.702800 -71.817200 -5.348130 -0.000001 -0.000004 -70.166000 6.023830 2.553660 -24.328900 0.000322 -0.000009 7.780440 9.044140 -41.001700 -22.291500 -0.000108 -0.000004 -0.914224 5.109580 4.892300 -2.192480 -6.469440 -0.000000 -176.610000 0.328568 -4.942880 39.081100 -0.000007 -0.000012 0.140016 -0.439629 17.666200 40.985400 -0.000006 -0.000013 0.760316 7.369600 -70.685900 11.754300 -0.000000 0.000003 -0.000242 0.171608 -9.616270 -2.192510 6.469440 -0.000001 -175.279000 4.838910 179.794000 -39.081100 -0.002282 -0.040193 0.001137 0.013143 9.513960 -40.985400 0.000008 0.000006 -3.891900 2.791550 -66.730900 -11.754300 -0.000006 -0.000006 -0.010426 0.274458 -5.422010
0.000000 0.000000 0.000000 0.000000 0.000000 -0.000000 -0.682001 93.168000 0.086533 86.903500 -0.038102 -2.632650 15.735700 0.000005 -0.000001 83.190800 88.308600 -81.506700 8.984550 -0.406207 -0.000000 -4.396400 -0.579401 3.348160 16.377300 -0.000001 -0.000001 1.877490 1.996010 -0.431265 6.456720 -0.000001 -0.000000 1.513260 2.445620 3.219370 12.994200 -0.242716 4.980390 -92.332600 6.875570 -71.208900 5.348090 -0.000007 -0.000001 -74.231300 0.778627 6.579580 24.328600 0.000019 0.000005 22.153900 14.501800 -58.405800 22.291600 -0.000001 0.000005 -2.584000 4.728610 12.640700 12.994500 -0.242716 -4.980390 88.447600 4.671590 -71.594500 -5.348130 -0.000001 -0.000004 -69.654600 2.346240 2.797870 -24.328900 0.000322 -0.000009 9.120900 8.849880 -46.221300 -22.291500 -0.000108 -0.000004 -1.002440 5.045990 6.323480 -2.192480 -6.469440 -0.000000 -176.562000 0.474408 -5.032430 39.081100 -0.000007 -0.000012 0.142803 -0.447421 17.701700 40.985400 -0.000006 -0.000013 0.958885 7.284360 -70.640500 11.754300 -0.000000 0.000003 0.000027 0.167164 -9.796760 -2.192510 6.469440 -0.000001 -175.206000 4.895410 179.728000 -39.081100 -0.002282 -0.040193 0.001199 0.012761 9.521550 -40.985400 0.000008 0.000006 -3.952980 2.728080 -66.652000 -11.754300 -0.000006 -0.000006 -0.010339 0.273819 -5.448170
